<svg width="24" height="24" viewBox="0 0 24 24" fill="none" xmlns="http://www.w3.org/2000/svg">
<path d="M11.6853 6.62938H7.2634C6.92833 6.62938 6.60698 6.76248 6.37004 6.99942C6.13311 7.23635 6 7.5577 6 7.89278V16.7366C6 17.0717 6.13311 17.393 6.37004 17.63C6.60698 17.8669 6.92833 18 7.2634 18H16.1072C16.4423 18 16.7636 17.8669 17.0006 17.63C17.2375 17.393 17.3706 17.0717 17.3706 16.7366V12.3147M15.7124 6.39249C15.9637 6.14118 16.3046 6 16.66 6C17.0154 6 17.3562 6.14118 17.6075 6.39249C17.8588 6.6438 18 6.98464 18 7.34004C18 7.69544 17.8588 8.03629 17.6075 8.28759L11.914 13.9817C11.764 14.1316 11.5787 14.2413 11.3751 14.3008L9.56027 14.8314C9.50591 14.8472 9.44829 14.8482 9.39344 14.8341C9.33859 14.8201 9.28853 14.7915 9.24849 14.7515C9.20845 14.7115 9.17991 14.6614 9.16586 14.6066C9.15181 14.5517 9.15276 14.4941 9.16861 14.4397L9.69924 12.6249C9.75896 12.4215 9.86888 12.2364 10.0189 12.0866L15.7124 6.39249Z" stroke="#808080" stroke-width="1.5" stroke-linecap="round" stroke-linejoin="round"/>
</svg>
